# xmcd CD database file
#
# Track frame offsets:
#	150
#	4321
#	22106
#	51447
#	113793
#	181360
#	225656
#	244756
#	328107
#
# Disc length: 4716 seconds
#
# Revision: 1
# Processed by: cddbd v1.5.2PL0 Copyright (c) Steve Scherf et al.
# Submitted via: CDex 1.75
#
DISCID=78126a09
DTITLE=Andrew Holecek - Dream Yoga d6 - The Fruition of the Nighttime Practices
DYEAR=2013
DGENRE=New Age
TTITLE0=Intro
TTITLE1=Using the dark to lead you to the light
TTITLE2=The nature of dream yoga
TTITLE3=Beginning stages of dream yoga
TTITLE4=Advanced stages of dream yoga
TTITLE5=From obstacles to opportunities
TTITLE6=Tips and tricks or nighttime practice
TTITLE7=The benefits of practice
TTITLE8=Our common clear light mind
EXTD=YEAR: 2013
EXTT0=
EXTT1=
EXTT2=
EXTT3=
EXTT4=
EXTT5=
EXTT6=
EXTT7=
EXTT8=
PLAYORDER=
